<?xml version="1.0" encoding="UTF-8" standalone="no"?>
<svg
   xmlns="http://www.w3.org/2000/svg"
   width="275"
   height="45"
   viewBox="0 0 110 18"
   version="1.1"
   id="svg16">

       <text
          style="fill:#0a70a3;fill-opacity:1;fill-rule:nonzero;font-size: 16px; font-family: 'Arial Black';"
          x="19" y="15">
          IEEE LTSC
       </text>
  <g
     id="layer1"
     transform="translate(129.35074,-20.872909)">
    <g
       id="g13718"
       transform="translate(157.6335,42.356881)">

      <path
         style="fill:#0a70a3;fill-opacity:1;fill-rule:nonzero;stroke:none;stroke-width:0.352778"
         d="m -278.43429,-18.833794 c 0.59945,-0.465776 1.35186,-0.07854 1.85484,0.350023 0.52641,0.402389 1.07625,0.858517 1.55719,1.325672 l 0.0882,0.04961 c 1.33394,1.238857 2.57418,2.614136 3.59255,4.069345 0.16398,0.253559 0.31006,0.540191 0.21773,0.876434 -0.339,0.848871 -1.0294,1.525488 -1.6316,2.2654928 -1.305,1.4056007 -2.68166,2.7643455 -4.22369,3.848862 -0.31143,0.2204861 -0.73174,0.4230582 -1.10518,0.2494245 -1.13413,-0.5939332 -2.09049,-1.5668272 -3.08405,-2.4529063 -1.15067,-1.0679818 -2.30684,-2.31097 -3.17914,-3.611838 -0.12953,-0.181902 -0.16674,-0.407899 -0.16261,-0.647678 0.113,-0.449242 0.41893,-0.818554 0.71107,-1.197515 1.03077,-1.313272 2.29306,-2.560398 3.56912,-3.698657 0.0303,-0.02893 0.0841,-0.09095 0.13091,-0.121267 0.54709,-0.474045 1.09141,-0.892969 1.66467,-1.305003 m 1.75425,-1.367013 -0.67662,-0.960491 c -0.0841,-0.04961 -0.18741,-0.133671 -0.27836,-0.158475 -0.19982,-0.08682 -0.41617,0.01792 -0.57878,0.141937 l -1.22508,1.595769 c -1.96646,2.434992 -4.29396,4.708758 -6.83369,6.451974 -0.19981,0.157096 -0.49885,0.31006 -0.56086,0.569129 -0.0661,0.231511 0.0551,0.424438 0.19844,0.567754 2.03398,1.401463 3.9784,3.0633775 5.70783,4.9595581 0.30731,0.3238394 0.55673,0.6435442 0.85714,0.9467144 0.50574,0.6738585 1.10106,1.351855 1.56545,2.0753247 0.14608,0.1529609 0.17088,0.4023853 0.39964,0.4768003 0.17776,0.062011 0.39825,0.1047327 0.56913,0 l 0.16949,-0.1694991 c 2.10427,-2.9806971 4.77215,-5.6568447 7.75285,-7.8176084 0.29903,-0.267342 0.86816,-0.366561 0.87643,-0.861275 -0.0207,-0.227376 -0.15296,-0.453376 -0.35002,-0.577399 l -0.0482,-0.0083 c -1.53375,-1.043174 -2.96415,-2.224151 -4.3105,-3.562226 l -1.48828,-1.554427 c -0.60358,-0.668349 -1.18787,-1.409736 -1.74597,-2.115291 m -1.53376,1.733574 c 0.61185,-0.416168 1.16031,0.165365 1.63435,0.498849 1.83279,1.474502 3.56223,3.162597 4.87826,5.069802 0.16674,0.245289 0.24116,0.627009 0.0937,0.905372 -0.34314,0.570509 -0.8034,1.090027 -1.24024,1.619194 v 0.02755 c -1.09003,1.1603068 -2.23931,2.3523112 -3.48368,3.3334744 -0.60634,0.3706918 -1.16306,1.1768419 -1.94441,0.6766136 -1.77905,-1.300868 -3.4823,-2.9173064 -4.92511,-4.650878 -0.24529,-0.381716 -0.62701,-0.693151 -0.79788,-1.125858 -0.23703,-0.585664 0.28663,-1.005967 0.58566,-1.446939 1.47175,-1.814876 3.3004,-3.5953 5.19934,-4.907192 m 0.38585,1.196135 -0.16536,0.531922 -0.83096,2.382629 c 0.20808,0.02067 0.46578,0 0.66973,0.02067 v 0.0193 l -0.12127,2.694055 0.0207,0.02893 c 0.26596,0.0248 0.59807,0.03859 0.86954,-0.0083 v -0.04272 l -0.10886,-2.611381 0.0165,-0.0882 0.73174,-0.01242 c -0.36518,-0.964628 -0.71934,-1.938898 -1.05971,-2.914551 z m -2.82911,3.731729 c -0.46578,0.234266 -1.15204,0.587044 -1.07625,1.226454 0.0992,0.348643 0.47818,0.574639 0.77721,0.719335 1.65365,0.727604 3.84887,0.752408 5.59484,0.209461 0.43133,-0.166744 1.0101,-0.407899 1.08865,-0.935686 -0.004,-0.436838 -0.46578,-0.71107 -0.79788,-0.87781 v -0.02067 c 0.11575,-0.04686 0.24804,-0.08682 0.36793,-0.100598 v -0.01101 c -0.58429,-0.104732 -1.14928,-0.257693 -1.71566,-0.407899 0.10887,0.249425 0.18742,0.511249 0.27837,0.768943 0.17087,-0.05374 0.34589,-0.09508 0.52916,-0.119888 0.29904,0.115753 0.72623,0.282497 0.76895,0.655944 0.0331,0.348647 -0.35002,0.519522 -0.59118,0.660083 -1.2802,0.465776 -2.72162,0.511252 -4.05694,0.158474 -0.36932,-0.117132 -0.90124,-0.265962 -0.94672,-0.735873 0.26183,-0.61874 0.93845,-0.746897 1.50482,-0.897103 -0.29076,-0.187413 -0.58704,-0.354157 -0.86816,-0.56224 -0.30455,0.01792 -0.58291,0.150206 -0.85714,0.270098 m 2.36471,2.685796 c -0.0496,0.9563554 -0.062,1.8410586 -0.13229,2.801549 0.37758,0.033055 0.80615,0.066146 1.20854,0.00826 l -0.11989,-2.673392 -0.0207,-0.126782 c -0.30868,0.01101 -0.59944,0.02342 -0.93569,-0.0096"
         id="path13263" />
      <path
         style="fill:#0a70a3;fill-opacity:1;fill-rule:nonzero;stroke:none;stroke-width:0.352778"
         d="m -274.76181,-5.3827613 c -0.33487,0 -0.63252,0.2315104 -0.63252,0.6283854 0,0.3982544 0.29765,0.6311406 0.63252,0.6311406 0.3321,0 0.62976,-0.2328862 0.62976,-0.6311406 0,-0.396875 -0.29766,-0.6283854 -0.62976,-0.6283854 m 0,1.1134549 v -0.00141 c -0.24943,0.00141 -0.45062,-0.1929236 -0.45062,-0.4836901 0,-0.2880113 0.20119,-0.4809349 0.45062,-0.4809349 0.24391,0 0.45061,0.1929236 0.45061,0.4809349 0,0.2907665 -0.2067,0.4850694 -0.45061,0.4850694 m 0.28112,-0.6187405 c 0,-0.1543402 -0.10198,-0.2039478 -0.27837,-0.2039478 h -0.25218 v 0.6766172 h 0.1447 v -0.283845 h 0.0689 l 0.15572,0.2838767 h 0.17225 l -0.17501,-0.2962804 c 0.0923,-0.00826 0.16399,-0.052363 0.16399,-0.1763889 m -0.2577,0.073036 h -0.12815 V -4.978995 h 0.10197 c 0.0551,0 0.12954,0.0055 0.12954,0.075791 0,0.075794 -0.0372,0.088195 -0.10336,0.088195"
         id="path13265" />
    </g>
  </g>
</svg>
